# File created by Blade
# Date/Time:  Tue Sep 23 19:15:59 2014
# Frame Rate: 120.000 fps
#------------------------------------------------------
:FULLY-SPECIFIED
:DEGREES
1773
root 3.124119 32.187399 -6.236380 52.381614 -47.985971 -29.884050
Spine -32.360699 -23.189281 30.968750
Head 2.793454 1.773035 -2.383197
LeftShoulder 10.837248 38.920150 25.212118
LeftArm 80.602000 6.291755 -58.702714
LeftForeArm 39.349398 -0.000000 37.488422
LeftHand 46.492606 -0.000000 5.625879
LeftHandThumb1 -26.253704 0.000000 33.147579
RightShoulder 1.461899 -44.507579 -21.176538
RightArm 75.616381 -8.162477 61.482690
RightForeArm 50.118760 -0.000000 80.372031
RightHand 12.705811 -0.000000 18.821034
RightHandThumb1 -24.326973 -0.000000 -32.862282
LeftUpLeg -44.984959 12.723101 4.494960
LeftLeg 31.712647 -0.000000 -0.000000
LeftFoot -22.996986 13.359658 -2.302142
LeftToeBase 6.926214 -0.000000 -0.000000
RightUpLeg -168.300052 5.683831 24.585098
RightLeg 111.271494 -0.000000 -0.000000
RightFoot 40.545837 -21.949505 14.651224
RightToeBase 48.444992 -0.000000 -0.000000
1774
root 3.125595 32.201626 -6.238909 52.595367 -48.093570 -30.103533
Spine -32.297872 -23.150531 30.891588
Head 2.548132 1.799596 -2.129994
LeftShoulder 10.697764 38.840773 25.228819
LeftArm 81.458426 6.304246 -57.079864
LeftForeArm 40.886402 -0.000000 35.285953
LeftHand 45.466708 -0.000000 7.590645
LeftHandThumb1 -26.253704 0.000000 33.147579
RightShoulder 1.487946 -44.409229 -21.202565
RightArm 75.458413 -8.247999 61.649942
RightForeArm 50.187145 0.000000 80.612606
RightHand 12.717833 0.000000 18.773262
RightHandThumb1 -24.326973 -0.000000 -32.862282
LeftUpLeg -44.990585 12.998533 4.470732
LeftLeg 31.652439 -0.000000 -0.000000
LeftFoot -22.924247 13.211950 -2.344832
LeftToeBase 6.734775 -0.000000 -0.000000
RightUpLeg -168.343986 5.783816 24.524087
RightLeg 110.866305 -0.000000 -0.000000
RightFoot 40.467570 -22.068513 14.667409
RightToeBase 48.207538 -0.000000 -0.000000
1775
root 3.127635 32.214169 -6.242966 52.840132 -48.176119 -30.341913
Spine -32.245310 -23.099803 30.840189
Head 2.296928 1.753535 -1.861828
LeftShoulder 10.681285 38.760817 25.315789
LeftArm 82.264345 6.298631 -55.393034
LeftForeArm 41.573450 0.000000 33.068462
LeftHand 44.806315 0.000000 9.165779
LeftHandThumb1 -26.253704 0.000000 33.147579
RightShoulder 1.438792 -44.365580 -21.125974
RightArm 75.392483 -8.266339 61.690184
RightForeArm 50.348955 -0.000000 80.792823
RightHand 12.788518 -0.000000 18.789298
RightHandThumb1 -24.326973 -0.000000 -32.862282
LeftUpLeg -45.040382 13.300830 4.439070
LeftLeg 31.603110 -0.000000 -0.000000
LeftFoot -22.742696 13.187776 -2.207669
LeftToeBase 6.855436 -0.000000 -0.000000
RightUpLeg -168.431600 5.880260 24.465118
RightLeg 110.513642 -0.000000 -0.000000
RightFoot 40.397592 -22.161536 14.702436
RightToeBase 48.232114 -0.000000 -0.000000
1776
root 3.128260 32.224308 -6.243544 53.017895 -48.176254 -30.493865
Spine -32.243315 -23.117316 30.847746
Head 2.026121 1.737161 -1.621273
LeftShoulder 10.775590 38.626825 25.438745
LeftArm 82.904598 6.315840 -54.018568
LeftForeArm 41.442841 -0.000000 30.903099
LeftHand 44.831428 -0.000000 9.541893
LeftHandThumb1 -26.253704 0.000000 33.147579
RightShoulder 1.313359 -44.380629 -20.978708
RightArm 75.418587 -8.235691 61.666877
RightForeArm 50.509564 -0.000000 80.971608
RightHand 12.772174 -0.000000 18.775194
RightHandThumb1 -24.326973 -0.000000 -32.862282
LeftUpLeg -45.102119 13.478879 4.435205
LeftLeg 31.565736 -0.000000 -0.000000
LeftFoot -22.692946 13.027698 -2.226226
LeftToeBase 7.135961 -0.000000 -0.000000
RightUpLeg -168.575675 5.928730 24.472968
RightLeg 110.247950 -0.000000 -0.000000
RightFoot 40.311562 -22.249307 14.682467
RightToeBase 48.225226 -0.000000 -0.000000
1777
root 3.129864 32.231567 -6.243578 53.137055 -48.158912 -30.544435
Spine -32.299216 -23.229972 30.882035
Head 1.728541 1.816359 -1.389224
LeftShoulder 10.859067 38.509181 25.542396
LeftArm 83.415856 6.317439 -52.527931
LeftForeArm 41.864955 -0.000000 29.115022
LeftHand 43.767425 -0.000000 11.625927
LeftHandThumb1 -26.253704 0.000000 33.147579
RightShoulder 1.231252 -44.348155 -20.879883
RightArm 75.444487 -8.221817 61.631552
RightForeArm 50.664899 -0.000000 81.119725
RightHand 12.732658 0.000000 18.816590
RightHandThumb1 -24.326973 -0.000000 -32.862282
LeftUpLeg -45.184758 13.607288 4.384724
LeftLeg 31.506962 -0.000000 -0.000000
LeftFoot -22.522124 12.933793 -2.065505
LeftToeBase 7.014301 -0.000000 -0.000000
RightUpLeg -168.780871 5.926152 24.454828
RightLeg 110.077410 -0.000000 -0.000000
RightFoot 40.098799 -22.312077 14.796231
RightToeBase 48.220547 -0.000000 -0.000000
1778
root 3.131611 32.239690 -6.245132 53.283244 -48.117814 -30.579980
Spine -32.393248 -23.329175 30.934870
Head 1.413750 1.829392 -1.156690
LeftShoulder 11.008234 38.477488 25.709281
LeftArm 83.853406 6.226420 -51.204012
LeftForeArm 43.259930 0.000000 27.820521
LeftHand 42.123149 -0.000000 14.378657
LeftHandThumb1 -26.253704 0.000000 33.147579
RightShoulder 1.063885 -44.295296 -20.716011
RightArm 75.475698 -8.234403 61.536861
RightForeArm 50.823612 -0.000000 81.234000
RightHand 12.733694 0.000000 18.826088
RightHandThumb1 -24.326973 -0.000000 -32.862282
LeftUpLeg -45.313519 13.735606 4.341674
LeftLeg 31.458318 -0.000000 -0.000000
LeftFoot -22.348363 12.778533 -1.921722
LeftToeBase 6.833459 -0.000000 -0.000000
RightUpLeg -169.025845 5.925679 24.440000
RightLeg 109.975994 -0.000000 -0.000000
RightFoot 39.972816 -22.328529 14.844632
RightToeBase 48.211053 -0.000000 -0.000000
1779
root 3.131913 32.246775 -6.246933 53.434313 -48.044232 -30.599210
Spine -32.529484 -23.433091 31.018767
Head 1.146186 1.859247 -0.921167
LeftShoulder 11.201113 38.500787 25.896557
LeftArm 84.149147 5.993933 -50.255827
LeftForeArm 45.531611 -0.000000 27.123304
LeftHand 40.827160 -0.000000 16.301318
LeftHandThumb1 -26.253704 0.000000 33.147579
RightShoulder 0.952514 -44.155089 -20.616376
RightArm 75.351795 -8.286560 61.528494
RightForeArm 50.863058 -0.000000 81.409240
RightHand 12.652512 0.000000 18.783772
RightHandThumb1 -24.326973 -0.000000 -32.862282
LeftUpLeg -45.484612 13.803590 4.340405
LeftLeg 31.463963 -0.000000 -0.000000
LeftFoot -22.263803 12.633852 -1.933501
LeftToeBase 6.843633 -0.000000 -0.000000
RightUpLeg -169.276422 5.919520 24.462096
RightLeg 109.956246 -0.000000 -0.000000
RightFoot 39.867509 -22.272864 14.842439
RightToeBase 48.272604 -0.000000 -0.000000
1780
root 3.131641 32.252582 -6.247174 53.511866 -47.951526 -30.600764
Spine -32.608929 -23.603825 31.104918
Head 0.842877 1.959263 -0.684937
LeftShoulder 11.336601 38.648730 26.009890
LeftArm 84.403125 5.566435 -49.510842
LeftForeArm 46.838578 -0.000000 26.958710
LeftHand 40.707971 -0.000000 16.603726
LeftHandThumb1 -26.253704 0.000000 33.147579
RightShoulder 0.900129 -44.033489 -20.579783
RightArm 75.225856 -8.325791 61.515964
RightForeArm 50.899071 0.000000 81.576711
RightHand 12.625229 -0.000000 18.776478
RightHandThumb1 -24.326973 -0.000000 -32.862282
LeftUpLeg -45.627632 13.856716 4.367649
LeftLeg 31.533919 -0.000000 -0.000000
LeftFoot -22.199955 12.378903 -2.098823
LeftToeBase 6.967928 -0.000000 -0.000000
RightUpLeg -169.475492 5.932476 24.523251
RightLeg 110.027570 -0.000000 -0.000000
RightFoot 39.793186 -22.395216 14.836900
RightToeBase 48.275549 -0.000000 -0.000000
1781
root 3.129044 32.256239 -6.246657 53.571418 -47.910388 -30.606212
Spine -32.642784 -23.732807 31.115193
Head 0.532607 1.987607 -0.464394
LeftShoulder 11.412617 38.756802 26.057438
LeftArm 84.582358 5.052905 -48.691916
LeftForeArm 47.963295 -0.000000 27.270900
LeftHand 40.902295 -0.000000 16.009612
LeftHandThumb1 -26.253704 0.000000 33.147579
RightShoulder 0.843169 -43.960558 -20.579573
RightArm 75.101873 -8.389479 61.545875
RightForeArm 50.985138 -0.000000 81.746558
RightHand 12.655779 -0.000000 18.765963
RightHandThumb1 -24.326973 -0.000000 -32.862282
LeftUpLeg -45.781603 13.924170 4.377039
LeftLeg 31.690928 -0.000000 -0.000000
LeftFoot -22.117922 12.130796 -2.244922
LeftToeBase 6.824357 -0.000000 -0.000000
RightUpLeg -169.658515 5.949854 24.519314
RightLeg 110.147403 -0.000000 -0.000000
RightFoot 39.969590 -22.362337 14.827405
RightToeBase 48.319329 -0.000000 -0.000000
